<svg xmlns="http://www.w3.org/2000/svg" fill="currentColor" stroke="currentColor" viewBox="0 96 960 960" width="48"><path d="m209 919.5-4.5-45q-12-5-19.5-9t-14.5-9.5L128 873l-27.5-48.5 35-25.5v-40l-35-27.5L128 683l42.5 18q9.5-7 17.5-12.25t16.5-8.25l4.5-44h56l5.5 45q4.5 3 8.25 4.75t8 3.5q4.25 1.75 8.5 5t9.25 6.25l41.5-18 28.5 48.5-35 26.5q0 9-.75 24.25T336.5 803q4 2.5 8.5 4.75l9.5 4.75 227.5-127-26.5 46-3-3L371 829l-25 44-41.5-17q-10.5 7.5-18.5 11.75t-15.5 7.75l-5.5 44h-56Zm28-220q-33 0-55.25 23.25T159.5 778q0 33 22.25 55.75T237 856.5q33 0 55.75-22.75T315.5 778q0-32-22.75-55.25T237 699.5Zm175-225-4.5-44q-12.5-6-21-10.75t-15-11.25l-9 9V653l-2-4.5-22 10v-231l-34.5-48 34.5-25.5v-40l-35-27.5L331 239l42.5 17q9.5-7 17.5-11.75t16.5-8.75l4.5-44h56l5.5 45q10.5 5 17 9t17 10.5l41.5-17 28.5 47.5-35 26.5v40l35 26.5L549 429l-41.5-18q-10.5 7.5-18.5 11.75t-15.5 7.75l-5.5 44h-56Zm28-220q-33 0-55.25 23.25T362.5 334q0 32 22.25 54.75T440 411.5q33 0 55.75-22.75T518.5 334q0-33-22.75-56.25T440 254.5Zm255 665-4.5-45q-13-5.5-20-9.25t-14-9.25L614 873l-27.5-48.5 35-25.5v-40l-35-26.5L614 683l42.5 18q8.5-7.5 16-12.25t11.5-7.25l5-23-220-158h22l2.5-10.5L698 636.5h53l5.5 45q4.5 3 8.25 4.75t8 3.5q4.25 1.75 8.5 5t9.25 6.25l41.5-18 28.5 48.5-35 26.5v40l35 26.5L832 873l-41.5-17q-11.5 8.5-19.5 12.75t-14.5 6.75l-5.5 44h-56Zm28-220q-33 0-55.25 23.25T645.5 778q0 33 22.25 55.75T723 856.5q33 0 55.75-22.75T801.5 778q0-32-22.75-55.25T723 699.5Z"/></svg>