<svg xmlns="http://www.w3.org/2000/svg" fill="currentColor" stroke="currentColor" height="40" viewBox="0 96 960 960" width="40"><path d="M358.521 667.539q-21.238 0-35.995-14.851-14.757-14.851-14.757-36.346 0-21.495 14.851-35.995 14.851-14.501 36.346-14.501 21.494 0 35.995 14.661 14.501 14.661 14.501 36.279 0 21.239-14.662 35.996-14.661 14.757-36.279 14.757Zm242.924 0q-21.239 0-35.996-14.851-14.757-14.851-14.757-36.346 0-21.495 14.851-35.995 14.851-14.501 36.346-14.501 21.495 0 35.995 14.661 14.501 14.661 14.501 36.279 0 21.239-14.661 35.996-14.661 14.757-36.279 14.757Zm-121.52 233.205q135.851 0 230.335-94.499 94.484-94.499 94.484-230.549 0-24.367-3.41-47.396-3.411-23.029-10.36-44.121-21.076 5-42.276 7.423-21.2 2.424-45.438 2.424-92.182 0-174.625-39.379-82.443-39.378-140.317-110.006-32.28 78.397-92.825 136.82-60.545 58.424-140.237 88.497v6.023q0 135.865 94.409 230.314 94.409 94.449 230.26 94.449Zm.301 32.436q-74.107 0-139.447-28.132-65.341-28.131-113.675-76.357t-76.309-113.333q-27.975-65.107-27.975-139.132 0-74.107 28.132-139.447 28.132-65.341 76.357-113.675 48.226-48.334 113.333-76.309 65.107-27.975 139.132-27.975 74.107 0 139.447 28.132 65.341 28.131 113.675 76.357t76.309 113.333q27.975 65.107 27.975 139.132 0 74.107-28.132 139.447-28.131 65.341-76.357 113.675t-113.333 76.309q-65.107 27.975-139.132 27.975ZM375.692 265.991q63.244 108.56 153.283 151.938 90.039 43.378 174.458 43.378 22.897 0 40.735-1.974 17.839-1.974 36.525-7.423-38.795-92.243-120.466-146.449-81.67-54.205-180.291-54.205-30.423 0-56 3.571-25.577 3.57-48.244 11.164ZM157.897 533.333q59.5-24.166 130.878-92.391 71.379-68.224 85.148-174.237-92.885 34.679-147.635 104.917-54.75 70.237-68.391 161.711Zm217.795-267.346Zm-1.769.718Z"/></svg>