<svg xmlns="http://www.w3.org/2000/svg" height="48" fill="currentColor" stroke="currentColor" viewBox="0 -960 960 960" width="48"><path d="M315.785-302.577q11.446 0 18.85-7.015 7.403-7.016 7.403-18.462t-7.457-18.85q-7.458-7.404-18.904-7.404t-18.408 7.458q-6.961 7.458-6.961 18.904t7.015 18.408q7.016 6.961 18.462 6.961Zm0-152q11.446 0 18.85-7.015 7.403-7.016 7.403-18.462t-7.457-18.85q-7.458-7.404-18.904-7.404t-18.408 7.458q-6.961 7.458-6.961 18.904t7.015 18.408q7.016 6.961 18.462 6.961Zm0-152.115q11.446 0 18.85-7.016 7.403-7.015 7.403-18.461 0-11.446-7.457-18.85-7.458-7.404-18.904-7.404t-18.408 7.458q-6.961 7.457-6.961 18.904 0 11.446 7.015 18.407 7.016 6.962 18.462 6.962Zm128.638 293.846h216.385v-30.192H444.423v30.192Zm0-152.115h216.385v-30.193H444.423v30.193Zm0-152.001h216.385v-30.192H444.423v30.192ZM215.664-161.038q-22.229 0-38.427-16.199-16.199-16.198-16.199-38.427v-528.672q0-22.229 16.199-38.427 16.198-16.199 38.427-16.199h528.672q22.229 0 38.427 16.199 16.199 16.198 16.199 38.427v528.672q0 22.229-16.199 38.427-16.198 16.199-38.427 16.199H215.664Zm.182-30.193h528.308q9.231 0 16.923-7.692 7.692-7.692 7.692-16.923v-528.308q0-9.231-7.692-16.923-7.692-7.692-16.923-7.692H215.846q-9.231 0-16.923 7.692-7.692 7.692-7.692 16.923v528.308q0 9.231 7.692 16.923 7.692 7.692 16.923 7.692Zm-24.615-577.538v577.538-577.538Z"/></svg>