<svg xmlns="http://www.w3.org/2000/svg" fill="currentColor" stroke="currentColor" height="40" viewBox="0 96 960 960" width="40"><path d="M219.407 933.18q-23.404 0-40.136-16.733-16.733-16.732-16.733-40.166V432.078q0-23.434 16.733-40.167 16.732-16.732 40.318-16.732h105.462q0-64.872 44.379-109.91 44.378-45.039 109.013-45.039 64.634 0 110.57 45.1 45.936 45.099 45.936 109.849h105.462q23.586 0 40.318 16.732 16.733 16.733 16.733 40.167v444.203q0 23.434-16.733 40.166-16.732 16.733-40.136 16.733H219.407Zm.182-32.436h520.822q9.23 0 16.923-7.692 7.692-7.693 7.692-16.923V432.23q0-9.23-7.692-16.923-7.693-7.692-16.923-7.692H219.589q-9.23 0-16.923 7.692-7.692 7.693-7.692 16.923v443.899q0 9.23 7.692 16.923 7.693 7.692 16.923 7.692Zm260.392-295.385q64.891 0 110.827-45.923 45.936-45.922 45.936-110.821h-32.436q0 51.513-36.681 87.91-36.681 36.398-87.654 36.398t-87.371-36.374q-36.397-36.374-36.397-87.934h-32.436q0 64.872 45.661 110.808 45.66 45.936 110.551 45.936Zm-122.494-230.18h245.026q0-51-35.723-86.756-35.724-35.757-86.757-35.757-51.033 0-86.79 35.733-35.756 35.733-35.756 86.78ZM194.974 900.744V407.615v493.129Z"/></svg>