<svg xmlns="http://www.w3.org/2000/svg" fill="currentColor" stroke="currentColor" height="40" viewBox="0 96 960 960" width="40"><path d="M 219.407 933.18 q -23.404 0 -40.136 -16.733 q -16.733 -16.732 -16.733 -40.166 V 432.078 q 0 -23.434 16.733 -40.167 q 16.732 -16.732 40.318 -16.732 h 105.462 q 0 -64.872 44.379 -109.91 q 44.378 -45.039 109.013 -45.039 q 64.634 0 110.57 45.1 q 45.936 45.099 45.936 109.849 h 105.462 q 23.586 0 40.318 16.732 q 16.733 16.733 16.733 40.167 v 444.203 q 0 23.434 -16.733 40.166 q -16.732 16.733 -40.136 16.733 H 219.407 Z m 0.182 -32.436 h 520.822 q 9.23 0 16.923 -7.692 q 7.692 -7.693 7.692 -16.923 V 432.23 q 0 -9.23 -7.692 -16.923 q -7.693 -7.692 -16.923 -7.692 H 219.589 q -9.23 0 -16.923 7.692 q -7.692 7.693 -7.692 16.923 v 443.899 q 0 9.23 7.692 16.923 q 7.693 7.692 16.923 7.692 Z m 260.392 -295.385 Z m -122.494 -230.18 h 245.026 q 0 -51 -35.723 -86.756 q -35.724 -35.757 -86.757 -35.757 q -51.033 0 -86.79 35.733 q -35.756 35.733 -35.756 86.78 Z M 194.974 900.744 V 407.615 v 493.129 Z"/></svg>