<svg xmlns="http://www.w3.org/2000/svg" fill="currentColor" stroke="currentColor" height="48" viewBox="0 -960 960 960" width="48"><path d="M475.039-120.577v-30.192h261.307q9.231 0 16.923-7.693 7.693-7.692 7.693-16.923v-568.654q0-9.23-7.693-16.923-7.692-7.692-16.923-7.692H475.039v-30.192h261.489q22.229 0 38.428 16.198 16.198 16.198 16.198 38.609v568.654q0 22.411-16.198 38.61-16.199 16.198-38.428 16.198H475.039Zm-20.27-211-21.5-20.5 92.538-92.538H168.846v-30.193h355.731l-92.539-92.538 22.269-22.154 129.578 129.577-129.116 128.346Z"/></svg>