<svg xmlns="http://www.w3.org/2000/svg" height="48" fill="currentColor" stroke="currentColor" viewBox="0 -960 960 960" width="48"><path d="M223.472-120.577q-22.229 0-38.428-16.198-16.198-16.199-16.198-38.61v-568.654q0-22.411 16.198-38.609 16.199-16.198 38.428-16.198h261.489v30.192H223.654q-9.231 0-16.923 7.692-7.693 7.693-7.693 16.923v568.654q0 9.231 7.693 16.923 7.692 7.693 16.923 7.693h261.307v30.192H223.472Zm439.336-211-22.27-20.5 92.539-92.538H376.885v-30.193h355.73l-92.538-92.538 21.5-22.154 129.577 129.961-128.346 127.962Z"/></svg>