<svg xmlns="http://www.w3.org/2000/svg" height="48"  fill="currentColor" stroke="currentColor" viewBox="0 96 960 960" width="48"><path d="M108.154 837.769V794h387.384v43.769H108.154Zm0-200.384v-43.77h185.384v43.77H108.154Zm0-199.385v-43.769h185.384V438H108.154Zm713.692 401.308L664.462 681.923q-23.496 17.693-50.21 27.308-26.713 9.615-56.055 9.615-73.279 0-123.546-50.632-50.267-50.633-50.267-123.234 0-72.6 50.267-123.367 50.267-50.767 123.234-50.767 72.966 0 123.733 50.672 50.767 50.672 50.767 123.328 0 30.142-10.115 56.917-10.116 26.775-26.808 49.16l157.384 157.385-31 31ZM557.765 675.077q54.004 0 92.427-38.215 38.423-38.215 38.423-91.808t-38.009-92.016q-38.009-38.423-92.307-38.423-54.299 0-92.222 38.215-37.923 38.215-37.923 91.808t37.803 92.016q37.803 38.423 91.808 38.423Z"/></svg>