<svg xmlns="http://www.w3.org/2000/svg" xmlns:xlink="http://www.w3.org/1999/xlink" width="50" zoomAndPan="magnify" viewBox="0 0 37.5 37.499999" height="50" preserveAspectRatio="xMidYMid meet" version="1.0"><defs><g/><clipPath id="0f6efc6716"><path d="M 0 0 L 37.007812 0 L 37.007812 37.007812 L 0 37.007812 Z M 0 0 " clip-rule="nonzero"/></clipPath></defs><g clip-path="url(#0f6efc6716)"><path fill="#ffffff" d="M 0 0 L 37.5 0 L 37.5 45 L 0 45 Z M 0 0 " fill-opacity="1" fill-rule="nonzero"/><path fill="#ffffff" d="M 0 0 L 37.5 0 L 37.5 37.5 L 0 37.5 Z M 0 0 " fill-opacity="1" fill-rule="nonzero"/><path fill="#ffffff" d="M 0 0 L 37.5 0 L 37.5 37.5 L 0 37.5 Z M 0 0 " fill-opacity="1" fill-rule="nonzero"/></g><g fill="#000000" fill-opacity="1"><g transform="translate(1.05, 40.407499)"><g><path d="M 7.136719 -9.957031 C 8.195312 -9.601562 8.898438 -9.957031 9.425781 -10.925781 C 9.867188 -11.71875 10.21875 -12.511719 10.21875 -13.480469 C 11.367188 -15.769531 12.335938 -18.148438 13.566406 -20.441406 C 14.359375 -22.027344 15.242188 -23.523438 16.300781 -24.933594 C 16.476562 -25.109375 16.652344 -25.460938 17.09375 -25.199219 C 17.09375 -24.316406 17.003906 -23.433594 17.09375 -22.464844 C 17.53125 -18.5 19.734375 -15.59375 23.789062 -14.800781 C 24.757812 -14.714844 25.726562 -14.714844 26.605469 -15.152344 C 28.898438 -16.300781 30.21875 -17.179688 32.246094 -19.824219 C 33.480469 -21.496094 33.742188 -21.9375 34.976562 -24.582031 C 35.242188 -25.109375 35.859375 -26.078125 35.859375 -26.605469 C 35.859375 -27.839844 34.710938 -27.578125 34.535156 -27.398438 C 33.917969 -27.046875 32.597656 -23.789062 32.15625 -23.171875 C 30.042969 -20.265625 31.011719 -20.878906 29.074219 -18.941406 C 28.457031 -18.324219 27.3125 -17.972656 26.605469 -17.445312 C 26.078125 -17.09375 25.375 -16.738281 24.582031 -16.914062 C 23.875 -17.09375 23.347656 -18.0625 23.347656 -18.765625 C 23.433594 -19.382812 23.433594 -19.910156 23.523438 -20.441406 C 23.875 -21.9375 23.613281 -23.523438 24.316406 -25.109375 C 24.492188 -25.375 24.582031 -25.8125 24.40625 -26.167969 C 24.050781 -27.136719 23.699219 -28.28125 22.730469 -28.808594 C 21.320312 -29.425781 20 -30.308594 18.238281 -29.957031 L 17.886719 -29.867188 C 16.652344 -29.339844 15.507812 -28.722656 14.625 -27.753906 C 13.65625 -26.605469 12.597656 -25.550781 11.542969 -24.40625 C 11.542969 -25.375 11.542969 -26.34375 11.453125 -27.3125 C 11.453125 -28.105469 11.367188 -28.984375 11.277344 -29.777344 C 11.101562 -30.570312 10.660156 -31.1875 9.957031 -31.628906 C 8.722656 -32.6875 7.136719 -33.039062 5.550781 -33.304688 C 4.84375 -33.390625 4.230469 -33.304688 3.523438 -33.039062 C 3.261719 -32.773438 2.90625 -32.597656 2.644531 -32.332031 C 2.46875 -32.15625 2.203125 -31.804688 1.9375 -31.453125 C 1.585938 -30.660156 1.320312 -29.867188 1.058594 -28.984375 C 0.882812 -28.191406 0.792969 -27.3125 0.527344 -26.429688 C 0.265625 -25.726562 0.351562 -24.933594 0.175781 -24.226562 L 0.175781 -23.699219 C -0.0898438 -21.144531 -0.0898438 -18.589844 0.617188 -16.035156 C 0.882812 -14.890625 1.144531 -13.832031 1.851562 -13.039062 C 3.347656 -11.453125 5.109375 -10.484375 7.136719 -9.957031 Z M 7.136719 -9.957031 "/></g></g></g></svg>