<svg xmlns="http://www.w3.org/2000/svg" xmlns:xlink="http://www.w3.org/1999/xlink" width="260" zoomAndPan="magnify" viewBox="0 0 194.87999 83.999999" height="112" preserveAspectRatio="xMidYMid meet" version="1.0"><defs><g/><clipPath id="5c9e0c4868"><path d="M 136 5 L 194.761719 5 L 194.761719 52 L 136 52 Z M 136 5 " clip-rule="nonzero"/></clipPath></defs><g fill="#334155" fill-opacity="1"><g transform="translate(2.186687, 64.305699)"><g><path d="M 10.941406 -15.261719 C 12.5625 -14.722656 13.640625 -15.261719 14.453125 -16.75 C 15.128906 -17.964844 15.667969 -19.179688 15.667969 -20.664062 C 17.421875 -24.175781 18.910156 -27.824219 20.800781 -31.335938 C 22.015625 -33.765625 23.367188 -36.0625 24.988281 -38.222656 C 25.257812 -38.492188 25.527344 -39.035156 26.203125 -38.628906 C 26.203125 -37.277344 26.066406 -35.929688 26.203125 -34.441406 C 26.878906 -28.363281 30.253906 -23.90625 36.46875 -22.691406 C 37.953125 -22.554688 39.441406 -22.554688 40.789062 -23.230469 C 44.300781 -24.988281 46.328125 -26.339844 49.433594 -30.390625 C 51.324219 -32.957031 51.730469 -33.632812 53.621094 -37.683594 C 54.027344 -38.492188 54.972656 -39.980469 54.972656 -40.789062 C 54.972656 -42.679688 53.214844 -42.277344 52.945312 -42.003906 C 52 -41.464844 49.976562 -36.46875 49.300781 -35.523438 C 46.058594 -31.066406 47.542969 -32.011719 44.570312 -29.039062 C 43.625 -28.09375 41.871094 -27.554688 40.789062 -26.742188 C 39.980469 -26.203125 38.898438 -25.664062 37.683594 -25.933594 C 36.601562 -26.203125 35.792969 -27.6875 35.792969 -28.769531 C 35.929688 -29.714844 35.929688 -30.523438 36.0625 -31.335938 C 36.601562 -33.632812 36.199219 -36.0625 37.277344 -38.492188 C 37.546875 -38.898438 37.683594 -39.574219 37.414062 -40.113281 C 36.875 -41.601562 36.332031 -43.355469 34.847656 -44.167969 C 32.6875 -45.113281 30.660156 -46.464844 27.957031 -45.921875 L 27.417969 -45.789062 C 25.527344 -44.976562 23.773438 -44.03125 22.421875 -42.546875 C 20.933594 -40.789062 19.316406 -39.167969 17.695312 -37.414062 C 17.695312 -38.898438 17.695312 -40.386719 17.558594 -41.871094 C 17.558594 -43.085938 17.421875 -44.4375 17.289062 -45.652344 C 17.019531 -46.867188 16.34375 -47.8125 15.261719 -48.488281 C 13.371094 -50.109375 10.941406 -50.648438 8.507812 -51.054688 C 7.429688 -51.191406 6.484375 -51.054688 5.402344 -50.648438 C 4.996094 -50.246094 4.457031 -49.976562 4.050781 -49.570312 C 3.78125 -49.300781 3.375 -48.757812 2.972656 -48.21875 C 2.429688 -47.003906 2.027344 -45.789062 1.621094 -44.4375 C 1.351562 -43.222656 1.214844 -41.871094 0.808594 -40.519531 C 0.40625 -39.441406 0.539062 -38.222656 0.269531 -37.144531 L 0.269531 -36.332031 C -0.136719 -32.417969 -0.136719 -28.5 0.945312 -24.582031 C 1.351562 -22.828125 1.757812 -21.207031 2.835938 -19.988281 C 5.132812 -17.558594 7.832031 -16.074219 10.941406 -15.261719 Z M 10.941406 -15.261719 "/></g></g></g><g fill="#334155" fill-opacity="1"><g transform="translate(47.160403, 64.305699)"><g><path d="M 18.503906 -12.425781 C 22.691406 -14.183594 26.339844 -16.476562 28.230469 -21.070312 C 28.5 -21.609375 28.632812 -21.746094 29.039062 -21.878906 C 29.714844 -22.554688 29.851562 -22.285156 30.660156 -21.070312 C 30.660156 -20.933594 30.796875 -20.933594 30.796875 -20.800781 C 31.742188 -19.179688 33.089844 -18.234375 34.441406 -17.289062 C 35.386719 -16.476562 37.953125 -16.074219 39.035156 -15.804688 C 39.710938 -15.53125 42.546875 -16.207031 42.953125 -16.75 C 43.222656 -17.289062 44.570312 -18.367188 45.515625 -18.910156 C 46.597656 -19.585938 49.027344 -22.960938 50.515625 -25.933594 C 52 -28.632812 54.433594 -31.46875 56.1875 -38.089844 C 56.457031 -39.167969 57.402344 -40.113281 55.511719 -41.601562 C 54.027344 -42.816406 53.488281 -42.140625 53.214844 -40.789062 C 52.40625 -35.929688 50.648438 -34.035156 49.164062 -30.121094 C 48.488281 -28.363281 44.707031 -23.097656 44.570312 -22.691406 C 44.4375 -22.285156 43.085938 -21.609375 42.546875 -21.207031 C 40.519531 -19.988281 39.574219 -20.261719 38.898438 -20.394531 C 35.386719 -21.207031 34.035156 -23.230469 34.171875 -26.609375 C 34.035156 -27.957031 33.089844 -29.039062 33.089844 -30.253906 C 32.957031 -30.796875 32.957031 -31.066406 32.957031 -31.605469 C 33.089844 -31.875 33.089844 -32.144531 33.089844 -32.28125 C 33.089844 -34.171875 33.226562 -35.792969 33.226562 -37.683594 C 33.363281 -38.089844 33.496094 -38.492188 33.902344 -38.765625 L 34.308594 -40.25 C 34.308594 -41.058594 34.171875 -41.464844 33.089844 -41.464844 C 32.144531 -41.464844 31.066406 -41.464844 29.984375 -41.332031 C 29.175781 -41.332031 28.632812 -40.789062 28.632812 -39.980469 C 28.5 -37.007812 27.824219 -34.308594 27.957031 -31.066406 C 27.957031 -30.253906 27.6875 -29.445312 27.417969 -28.632812 C 25.933594 -25.933594 24.582031 -23.097656 22.421875 -20.800781 C 21.207031 -19.585938 20.125 -18.097656 18.367188 -17.152344 C 17.289062 -16.476562 16.75 -16.613281 15.9375 -17.558594 C 14.046875 -19.585938 12.425781 -21.746094 12.964844 -24.3125 C 13.507812 -26.472656 13.640625 -28.632812 15.128906 -30.390625 C 15.128906 -30.523438 15.261719 -30.660156 15.261719 -30.796875 C 15.667969 -32.957031 17.558594 -34.441406 17.964844 -36.601562 C 18.097656 -36.738281 18.097656 -36.875 18.234375 -36.875 C 19.71875 -37.683594 20.664062 -39.167969 21.476562 -40.65625 C 21.609375 -40.925781 21.878906 -41.195312 22.152344 -41.332031 C 22.421875 -41.734375 22.828125 -42.140625 22.828125 -42.410156 C 23.230469 -43.761719 24.042969 -44.4375 24.988281 -44.976562 C 26.066406 -45.652344 28.09375 -46.328125 28.769531 -46.867188 C 29.308594 -47.410156 29.714844 -47.949219 30.121094 -48.21875 C 31.066406 -48.894531 31.335938 -49.433594 30.929688 -50.515625 C 29.984375 -52.675781 28.363281 -54.160156 26.203125 -55.105469 C 25.121094 -55.648438 24.3125 -55.917969 23.367188 -56.324219 C 21.746094 -57.269531 20.933594 -56.59375 19.042969 -57.269531 C 17.828125 -57.671875 16.34375 -57.539062 15.261719 -58.347656 C 14.855469 -58.753906 14.183594 -58.484375 14.046875 -57.945312 C 13.371094 -56.726562 12.292969 -55.917969 11.617188 -55.105469 C 8.644531 -51.867188 5.539062 -48.625 3.648438 -44.570312 C 2.027344 -41.058594 0.539062 -37.546875 0.40625 -33.632812 C 0.269531 -30.660156 -0.945312 -22.554688 3.648438 -17.828125 C 5.808594 -15.667969 8.507812 -14.046875 11.75 -13.640625 C 13.777344 -13.507812 15.804688 -13.101562 17.695312 -12.5625 C 17.964844 -12.425781 18.234375 -12.425781 18.503906 -12.425781 Z M 18.503906 -12.425781 "/></g></g></g><g fill="#334155" fill-opacity="1"><g transform="translate(92.404228, 64.305699)"><g><path d="M 10.941406 -15.261719 C 12.5625 -14.722656 13.640625 -15.261719 14.453125 -16.75 C 15.128906 -17.964844 15.667969 -19.179688 15.667969 -20.664062 C 17.421875 -24.175781 18.910156 -27.824219 20.800781 -31.335938 C 22.015625 -33.765625 23.367188 -36.0625 24.988281 -38.222656 C 25.257812 -38.492188 25.527344 -39.035156 26.203125 -38.628906 C 26.203125 -37.277344 26.066406 -35.929688 26.203125 -34.441406 C 26.878906 -28.363281 30.253906 -23.90625 36.46875 -22.691406 C 37.953125 -22.554688 39.441406 -22.554688 40.789062 -23.230469 C 44.300781 -24.988281 46.328125 -26.339844 49.433594 -30.390625 C 51.324219 -32.957031 51.730469 -33.632812 53.621094 -37.683594 C 54.027344 -38.492188 54.972656 -39.980469 54.972656 -40.789062 C 54.972656 -42.679688 53.214844 -42.277344 52.945312 -42.003906 C 52 -41.464844 49.976562 -36.46875 49.300781 -35.523438 C 46.058594 -31.066406 47.542969 -32.011719 44.570312 -29.039062 C 43.625 -28.09375 41.871094 -27.554688 40.789062 -26.742188 C 39.980469 -26.203125 38.898438 -25.664062 37.683594 -25.933594 C 36.601562 -26.203125 35.792969 -27.6875 35.792969 -28.769531 C 35.929688 -29.714844 35.929688 -30.523438 36.0625 -31.335938 C 36.601562 -33.632812 36.199219 -36.0625 37.277344 -38.492188 C 37.546875 -38.898438 37.683594 -39.574219 37.414062 -40.113281 C 36.875 -41.601562 36.332031 -43.355469 34.847656 -44.167969 C 32.6875 -45.113281 30.660156 -46.464844 27.957031 -45.921875 L 27.417969 -45.789062 C 25.527344 -44.976562 23.773438 -44.03125 22.421875 -42.546875 C 20.933594 -40.789062 19.316406 -39.167969 17.695312 -37.414062 C 17.695312 -38.898438 17.695312 -40.386719 17.558594 -41.871094 C 17.558594 -43.085938 17.421875 -44.4375 17.289062 -45.652344 C 17.019531 -46.867188 16.34375 -47.8125 15.261719 -48.488281 C 13.371094 -50.109375 10.941406 -50.648438 8.507812 -51.054688 C 7.429688 -51.191406 6.484375 -51.054688 5.402344 -50.648438 C 4.996094 -50.246094 4.457031 -49.976562 4.050781 -49.570312 C 3.78125 -49.300781 3.375 -48.757812 2.972656 -48.21875 C 2.429688 -47.003906 2.027344 -45.789062 1.621094 -44.4375 C 1.351562 -43.222656 1.214844 -41.871094 0.808594 -40.519531 C 0.40625 -39.441406 0.539062 -38.222656 0.269531 -37.144531 L 0.269531 -36.332031 C -0.136719 -32.417969 -0.136719 -28.5 0.945312 -24.582031 C 1.351562 -22.828125 1.757812 -21.207031 2.835938 -19.988281 C 5.132812 -17.558594 7.832031 -16.074219 10.941406 -15.261719 Z M 10.941406 -15.261719 "/></g></g></g><g clip-path="url(#5c9e0c4868)"><g fill="#334155" fill-opacity="1"><g transform="translate(137.377949, 64.305699)"><g><path d="M 18.503906 -12.425781 C 22.691406 -14.183594 26.339844 -16.476562 28.230469 -21.070312 C 28.5 -21.609375 28.632812 -21.746094 29.039062 -21.878906 C 29.714844 -22.554688 29.851562 -22.285156 30.660156 -21.070312 C 30.660156 -20.933594 30.796875 -20.933594 30.796875 -20.800781 C 31.742188 -19.179688 33.089844 -18.234375 34.441406 -17.289062 C 35.386719 -16.476562 37.953125 -16.074219 39.035156 -15.804688 C 39.710938 -15.53125 42.546875 -16.207031 42.953125 -16.75 C 43.222656 -17.289062 44.570312 -18.367188 45.515625 -18.910156 C 46.597656 -19.585938 49.027344 -22.960938 50.515625 -25.933594 C 52 -28.632812 54.433594 -31.46875 56.1875 -38.089844 C 56.457031 -39.167969 57.402344 -40.113281 55.511719 -41.601562 C 54.027344 -42.816406 53.488281 -42.140625 53.214844 -40.789062 C 52.40625 -35.929688 50.648438 -34.035156 49.164062 -30.121094 C 48.488281 -28.363281 44.707031 -23.097656 44.570312 -22.691406 C 44.4375 -22.285156 43.085938 -21.609375 42.546875 -21.207031 C 40.519531 -19.988281 39.574219 -20.261719 38.898438 -20.394531 C 35.386719 -21.207031 34.035156 -23.230469 34.171875 -26.609375 C 34.035156 -27.957031 33.089844 -29.039062 33.089844 -30.253906 C 32.957031 -30.796875 32.957031 -31.066406 32.957031 -31.605469 C 33.089844 -31.875 33.089844 -32.144531 33.089844 -32.28125 C 33.089844 -34.171875 33.226562 -35.792969 33.226562 -37.683594 C 33.363281 -38.089844 33.496094 -38.492188 33.902344 -38.765625 L 34.308594 -40.25 C 34.308594 -41.058594 34.171875 -41.464844 33.089844 -41.464844 C 32.144531 -41.464844 31.066406 -41.464844 29.984375 -41.332031 C 29.175781 -41.332031 28.632812 -40.789062 28.632812 -39.980469 C 28.5 -37.007812 27.824219 -34.308594 27.957031 -31.066406 C 27.957031 -30.253906 27.6875 -29.445312 27.417969 -28.632812 C 25.933594 -25.933594 24.582031 -23.097656 22.421875 -20.800781 C 21.207031 -19.585938 20.125 -18.097656 18.367188 -17.152344 C 17.289062 -16.476562 16.75 -16.613281 15.9375 -17.558594 C 14.046875 -19.585938 12.425781 -21.746094 12.964844 -24.3125 C 13.507812 -26.472656 13.640625 -28.632812 15.128906 -30.390625 C 15.128906 -30.523438 15.261719 -30.660156 15.261719 -30.796875 C 15.667969 -32.957031 17.558594 -34.441406 17.964844 -36.601562 C 18.097656 -36.738281 18.097656 -36.875 18.234375 -36.875 C 19.71875 -37.683594 20.664062 -39.167969 21.476562 -40.65625 C 21.609375 -40.925781 21.878906 -41.195312 22.152344 -41.332031 C 22.421875 -41.734375 22.828125 -42.140625 22.828125 -42.410156 C 23.230469 -43.761719 24.042969 -44.4375 24.988281 -44.976562 C 26.066406 -45.652344 28.09375 -46.328125 28.769531 -46.867188 C 29.308594 -47.410156 29.714844 -47.949219 30.121094 -48.21875 C 31.066406 -48.894531 31.335938 -49.433594 30.929688 -50.515625 C 29.984375 -52.675781 28.363281 -54.160156 26.203125 -55.105469 C 25.121094 -55.648438 24.3125 -55.917969 23.367188 -56.324219 C 21.746094 -57.269531 20.933594 -56.59375 19.042969 -57.269531 C 17.828125 -57.671875 16.34375 -57.539062 15.261719 -58.347656 C 14.855469 -58.753906 14.183594 -58.484375 14.046875 -57.945312 C 13.371094 -56.726562 12.292969 -55.917969 11.617188 -55.105469 C 8.644531 -51.867188 5.539062 -48.625 3.648438 -44.570312 C 2.027344 -41.058594 0.539062 -37.546875 0.40625 -33.632812 C 0.269531 -30.660156 -0.945312 -22.554688 3.648438 -17.828125 C 5.808594 -15.667969 8.507812 -14.046875 11.75 -13.640625 C 13.777344 -13.507812 15.804688 -13.101562 17.695312 -12.5625 C 17.964844 -12.425781 18.234375 -12.425781 18.503906 -12.425781 Z M 18.503906 -12.425781 "/></g></g></g></g><g fill="#334155" fill-opacity="1"><g transform="translate(16.553841, 76.47247)"><g><path d="M 7.253906 0.28125 C 7.894531 0.257812 8.25 0.230469 8.738281 0.101562 C 11.046875 -0.511719 12.738281 -2.203125 13.019531 -4.28125 C 13.480469 -7.636719 10.53125 -8.996094 8.355469 -9.996094 C 8.226562 -10.046875 8.074219 -10.121094 7.945312 -10.199219 C 5.613281 -11.277344 4.074219 -12.328125 4.125 -14.019531 C 4.253906 -18.015625 9.839844 -19.449219 11.351562 -15.886719 L 11.992188 -16.171875 C 11.351562 -17.65625 9.480469 -18.886719 6.738281 -18.347656 C 4.511719 -17.914062 2.460938 -16.324219 2.410156 -14.070312 C 2.332031 -10.890625 5.613281 -9.355469 7.199219 -8.609375 C 7.355469 -8.558594 7.484375 -8.484375 7.636719 -8.40625 C 10.046875 -7.328125 11.632812 -5.457031 11.300781 -3.5625 C 10.582031 0.460938 5.277344 0.820312 2.613281 -2.972656 L 2.050781 -2.589844 C 3.535156 -0.460938 5.535156 0.28125 7.253906 0.28125 Z M 7.253906 0.28125 "/></g></g></g><g fill="#334155" fill-opacity="1"><g transform="translate(52.176775, 76.47247)"><g><path d="M 7.226562 0 L 8.96875 0 L 8.96875 -17.707031 L 13.632812 -17.707031 L 13.632812 -18.398438 L 2.5625 -18.398438 L 2.5625 -17.707031 L 7.226562 -17.707031 Z M 7.226562 0 "/></g></g></g><g fill="#334155" fill-opacity="1"><g transform="translate(88.875958, 76.47247)"><g><path d="M 7.277344 0 L 9.019531 0 L 9.019531 -9.019531 L 13.761719 -18.398438 L 12.992188 -18.398438 L 8.738281 -9.996094 L 4.511719 -18.398438 L 2.5625 -18.398438 L 7.277344 -9.019531 Z M 7.277344 0 "/></g></g></g><g fill="#334155" fill-opacity="1"><g transform="translate(125.703264, 76.47247)"><g><path d="M 2.5625 0 L 13.480469 0 L 13.480469 -0.691406 L 4.304688 -0.691406 L 4.304688 -18.398438 L 2.5625 -18.398438 Z M 2.5625 0 "/></g></g></g><g fill="#334155" fill-opacity="1"><g transform="translate(162.248705, 76.47247)"><g><path d="M 2.5625 0 L 13.503906 0 L 13.503906 -0.691406 L 4.304688 -0.691406 L 4.304688 -8.96875 L 11.25 -8.96875 L 11.25 -9.660156 L 4.304688 -9.660156 L 4.304688 -17.707031 L 12.96875 -17.707031 L 12.96875 -18.398438 L 2.5625 -18.398438 Z M 2.5625 0 "/></g></g></g></svg>