<svg xmlns="http://www.w3.org/2000/svg" fill="currentColor" stroke="currentColor" xmlns:xlink="http://www.w3.org/1999/xlink" width="150" zoomAndPan="magnify" viewBox="0 0 112.5 52.499999" height="70" preserveAspectRatio="xMidYMid meet" version="1.0"><defs><g/><clipPath id="f27e7e778e"><path d="M 0.28125 3 L 28 3 L 28 50 L 0.28125 50 Z M 0.28125 3 " clip-rule="nonzero"/></clipPath><clipPath id="6b65be002f"><path d="M 81 3 L 111.722656 3 L 111.722656 50 L 81 50 Z M 81 3 " clip-rule="nonzero"/></clipPath></defs><g clip-path="url(#f27e7e778e)"><g fill="#000000" fill-opacity="1"><g transform="translate(-0.918463, 49.451846)"><g><path d="M 3.75 0 L 3.75 -27.867188 C 3.75 -30.929688 3.75 -33.742188 3.75 -35.988281 L 3.75 -40.925781 C 4.125 -40.175781 5.0625 -38.550781 6.375 -36.363281 C 7.558594 -34.179688 9.121094 -31.429688 10.808594 -28.492188 C 12.496094 -25.492188 14.308594 -22.242188 16.121094 -19.121094 C 19.308594 -13.558594 22.742188 -7.558594 26.554688 -0.8125 C 26.742188 -0.5 27.117188 -0.25 27.554688 -0.25 L 27.742188 -0.25 C 28.367188 -0.25 28.867188 -0.75 28.867188 -1.375 L 28.867188 -45.488281 L 26.679688 -45.550781 L 26.679688 -5.1875 C 26.117188 -6.1875 25.179688 -7.871094 23.867188 -10.121094 C 22.617188 -12.308594 21.054688 -15.058594 19.433594 -17.996094 C 17.746094 -20.871094 15.996094 -23.992188 14.246094 -27.054688 C 11.121094 -32.492188 7.808594 -38.300781 4.1875 -44.675781 C 4 -45.050781 3.6875 -45.238281 3.25 -45.238281 L 2.625 -45.238281 C 2.0625 -45.238281 1.5625 -44.738281 1.5625 -44.175781 L 1.5 0 Z M 3.75 0 "/></g></g></g></g><g fill="#000000" fill-opacity="1"><g transform="translate(24.760004, 49.451846)"><g><path d="M 29.992188 0 L 32.304688 -0.0625 L 18.246094 -44.800781 C 18.121094 -45.238281 17.683594 -45.550781 17.183594 -45.550781 L 16.621094 -45.550781 C 16.121094 -45.550781 15.683594 -45.238281 15.558594 -44.800781 L 1.5 -0.0625 L 3.8125 0 C 4.1875 -1.3125 4.625 -2.625 5.125 -4.0625 C 5.9375 -6.625 7 -10.058594 8.183594 -13.933594 L 25.617188 -13.933594 C 26.804688 -10.058594 27.867188 -6.625 28.679688 -4.0625 C 29.179688 -2.625 29.617188 -1.3125 29.992188 0 Z M 8.933594 -16.183594 C 9.996094 -19.746094 11.183594 -23.492188 12.308594 -27.054688 C 13.371094 -30.554688 14.433594 -33.867188 15.246094 -36.425781 C 16.058594 -39.050781 16.683594 -40.925781 16.933594 -41.738281 C 17.121094 -40.925781 17.746094 -39.050781 18.558594 -36.425781 C 19.371094 -33.867188 20.433594 -30.554688 21.492188 -27.054688 C 22.617188 -23.492188 23.804688 -19.746094 24.867188 -16.183594 Z M 8.933594 -16.183594 "/></g></g></g><g fill="#000000" fill-opacity="1"><g transform="translate(53.937285, 49.451846)"><g><path d="M 3.75 0 L 3.75 -27.867188 C 3.75 -30.929688 3.75 -33.742188 3.75 -35.988281 L 3.75 -40.925781 C 4.125 -40.175781 5.0625 -38.550781 6.375 -36.363281 C 7.558594 -34.179688 9.121094 -31.429688 10.808594 -28.492188 C 12.496094 -25.492188 14.308594 -22.242188 16.121094 -19.121094 C 19.308594 -13.558594 22.742188 -7.558594 26.554688 -0.8125 C 26.742188 -0.5 27.117188 -0.25 27.554688 -0.25 L 27.742188 -0.25 C 28.367188 -0.25 28.867188 -0.75 28.867188 -1.375 L 28.867188 -45.488281 L 26.679688 -45.550781 L 26.679688 -5.1875 C 26.117188 -6.1875 25.179688 -7.871094 23.867188 -10.121094 C 22.617188 -12.308594 21.054688 -15.058594 19.433594 -17.996094 C 17.746094 -20.871094 15.996094 -23.992188 14.246094 -27.054688 C 11.121094 -32.492188 7.808594 -38.300781 4.1875 -44.675781 C 4 -45.050781 3.6875 -45.238281 3.25 -45.238281 L 2.625 -45.238281 C 2.0625 -45.238281 1.5625 -44.738281 1.5625 -44.175781 L 1.5 0 Z M 3.75 0 "/></g></g></g><g clip-path="url(#6b65be002f)"><g fill="#000000" fill-opacity="1"><g transform="translate(79.615751, 49.451846)"><g><path d="M 29.992188 0 L 32.304688 -0.0625 L 18.246094 -44.800781 C 18.121094 -45.238281 17.683594 -45.550781 17.183594 -45.550781 L 16.621094 -45.550781 C 16.121094 -45.550781 15.683594 -45.238281 15.558594 -44.800781 L 1.5 -0.0625 L 3.8125 0 C 4.1875 -1.3125 4.625 -2.625 5.125 -4.0625 C 5.9375 -6.625 7 -10.058594 8.183594 -13.933594 L 25.617188 -13.933594 C 26.804688 -10.058594 27.867188 -6.625 28.679688 -4.0625 C 29.179688 -2.625 29.617188 -1.3125 29.992188 0 Z M 8.933594 -16.183594 C 9.996094 -19.746094 11.183594 -23.492188 12.308594 -27.054688 C 13.371094 -30.554688 14.433594 -33.867188 15.246094 -36.425781 C 16.058594 -39.050781 16.683594 -40.925781 16.933594 -41.738281 C 17.121094 -40.925781 17.746094 -39.050781 18.558594 -36.425781 C 19.371094 -33.867188 20.433594 -30.554688 21.492188 -27.054688 C 22.617188 -23.492188 23.804688 -19.746094 24.867188 -16.183594 Z M 8.933594 -16.183594 "/></g></g></g></g><g fill="#000000" fill-opacity="1"><g transform="translate(85.526979, 49.09169)"><g><path d="M 1.488281 -4.472656 C 0.851562 -4.472656 0.375 -4.023438 0.375 -3.273438 L 0.375 -3.085938 C 0.375 -2.6875 0.636719 -2.347656 1.023438 -2.25 L 1.910156 -2.011719 C 2.238281 -1.925781 2.472656 -1.625 2.472656 -1.285156 L 2.472656 -1.097656 C 2.472656 -0.414062 2.050781 -0.0234375 1.488281 -0.0234375 C 0.925781 -0.0234375 0.5 -0.414062 0.5 -1.097656 L 0.5 -1.25 L 0.375 -1.25 L 0.375 -1.097656 C 0.375 -0.351562 0.851562 0.101562 1.488281 0.101562 C 2.125 0.101562 2.597656 -0.351562 2.597656 -1.097656 L 2.597656 -1.285156 C 2.597656 -1.6875 2.335938 -2.023438 1.949219 -2.125 L 1.050781 -2.363281 C 0.726562 -2.449219 0.5 -2.75 0.5 -3.085938 L 0.5 -3.273438 C 0.5 -3.960938 0.925781 -4.347656 1.488281 -4.347656 C 2.050781 -4.347656 2.472656 -3.960938 2.472656 -3.273438 L 2.472656 -3.125 L 2.597656 -3.125 L 2.597656 -3.273438 C 2.597656 -4.023438 2.125 -4.472656 1.488281 -4.472656 Z M 1.488281 -4.472656 "/></g></g></g><g fill="#000000" fill-opacity="1"><g transform="translate(90.762354, 49.09169)"><g><path d="M 2.148438 -4.25 L 2.273438 -4.25 L 2.273438 -4.375 L 0.0625 -4.375 L 0.0625 -4.25 L 1.125 -4.25 L 1.125 0 L 1.25 0 L 1.25 -4.25 Z M 2.148438 -4.25 "/></g></g></g><g fill="#000000" fill-opacity="1"><g transform="translate(95.372982, 49.09169)"><g><path d="M 0.0625 -4.375 L 1.238281 -1.25 L 1.238281 0 L 1.363281 0 L 1.363281 -1.25 L 2.523438 -4.375 L 2.398438 -4.375 L 1.300781 -1.4375 L 0.199219 -4.375 Z M 0.0625 -4.375 "/></g></g></g><g fill="#000000" fill-opacity="1"><g transform="translate(100.233512, 49.09169)"><g><path d="M 0.5 -0.125 L 0.5 -4.375 L 0.375 -4.375 L 0.375 0 L 2.273438 0 L 2.273438 -0.125 Z M 0.5 -0.125 "/></g></g></g><g fill="#000000" fill-opacity="1"><g transform="translate(104.844141, 49.09169)"><g><path d="M 0.375 -4.375 L 0.375 0 L 2.273438 0 L 2.273438 -0.125 L 0.5 -0.125 L 0.5 -2.125 L 1.960938 -2.125 L 1.960938 -2.25 L 0.5 -2.25 L 0.5 -4.25 L 2.273438 -4.25 L 2.273438 -4.375 Z M 0.375 -4.375 "/></g></g></g></svg>