<svg xmlns="http://www.w3.org/2000/svg" height="48" fill="currentColor" stroke="currentColor" viewBox="0 -960 960 960" width="48"><path d="M390.923-536 480-580.731 569.962-536v-232.769H390.923V-536ZM280.731-300.731v-39.423h199.423v39.423H280.731Zm-65.067 139.693q-22.229 0-38.427-16.199-16.199-16.198-16.199-38.427v-528.672q0-22.229 16.199-38.427 16.198-16.199 38.427-16.199h528.672q22.229 0 38.427 16.199 16.199 16.198 16.199 38.427v528.672q0 22.229-16.199 38.427-16.198 16.199-38.427 16.199H215.664Zm-24.433-607.731v577.538-577.538Zm24.615 577.538h528.308q9.231 0 16.923-7.692 7.692-7.692 7.692-16.923v-528.308q0-9.231-7.692-16.923-7.692-7.692-16.923-7.692h-144v281.923L480-546.731l-119.269 59.885v-281.923H215.846q-9.231 0-16.923 7.692-7.692 7.692-7.692 16.923v528.308q0 9.231 7.692 16.923 7.692 7.692 16.923 7.692Z"/></svg>