<svg xmlns="http://www.w3.org/2000/svg" fill="currentColor" stroke="currentColor" viewBox="0 96 960 960" width="48"><path d="M480.022 551.269q-49.407 0-82.118-32.689-32.712-32.689-32.712-82.481 0-49.791 32.69-82.118 32.689-32.327 82.096-32.327 49.407 0 82.118 32.304 32.712 32.305 32.712 82.097 0 49.791-32.69 82.503-32.689 32.711-82.096 32.711ZM201.038 839.116v-57.154q0-26.676 15.09-47.29 15.089-20.614 39.693-32.187 59.284-25.905 114.669-39.58 55.386-13.674 109.498-13.674 54.113 0 109.485 13.519 55.373 13.519 114.306 40.218 25.234 11.218 40.208 31.839 14.975 20.62 14.975 47.396v56.913H201.038Zm30.193-30.193h497.538v-26.735q0-15.647-10.519-29.725-10.519-14.078-27.481-23.771-54.484-26.269-105.876-37.769-51.393-11.5-104.812-11.5-53.769 0-105.483 11.5-51.713 11.5-104.713 37.769-17.847 9.693-28.25 23.918-10.404 14.225-10.404 29.589v26.724ZM480 521.077q35.923 0 60.269-24.346 24.346-24.346 24.346-60.27 0-35.923-24.346-60.269-24.346-24.346-60.269-24.346t-60.269 24.346q-24.346 24.346-24.346 60.269 0 35.924 24.346 60.27 24.346 24.346 60.269 24.346Zm0-84.616Zm0 372.462Z"/></svg>